<svg width="78" height="41" viewBox="0 0 78 41" fill="none" xmlns="http://www.w3.org/2000/svg">
<path d="M35.1136 18.5455C35.1136 22.3523 34.392 25.5909 32.9489 28.2614C31.517 30.9318 29.5625 32.9716 27.0852 34.3807C24.6193 35.7784 21.8466 36.4773 18.767 36.4773C15.6648 36.4773 12.8807 35.7727 10.4148 34.3636C7.94886 32.9545 6 30.9148 4.56818 28.2443C3.13636 25.5739 2.42045 22.3409 2.42045 18.5455C2.42045 14.7386 3.13636 11.5 4.56818 8.82955C6 6.15909 7.94886 4.125 10.4148 2.72727C12.8807 1.31818 15.6648 0.613635 18.767 0.613635C21.8466 0.613635 24.6193 1.31818 27.0852 2.72727C29.5625 4.125 31.517 6.15909 32.9489 8.82955C34.392 11.5 35.1136 14.7386 35.1136 18.5455ZM27.6307 18.5455C27.6307 16.0795 27.2614 14 26.5227 12.3068C25.7955 10.6136 24.767 9.32955 23.4375 8.45455C22.108 7.57955 20.5511 7.14205 18.767 7.14205C16.983 7.14205 15.4261 7.57955 14.0966 8.45455C12.767 9.32955 11.733 10.6136 10.9943 12.3068C10.267 14 9.90341 16.0795 9.90341 18.5455C9.90341 21.0114 10.267 23.0909 10.9943 24.7841C11.733 26.4773 12.767 27.7614 14.0966 28.6364C15.4261 29.5114 16.983 29.9489 18.767 29.9489C20.5511 29.9489 22.108 29.5114 23.4375 28.6364C24.767 27.7614 25.7955 26.4773 26.5227 24.7841C27.2614 23.0909 27.6307 21.0114 27.6307 18.5455ZM68.3398 1.09091V36H61.9648L46.7773 14.0284H46.5216V36H39.141V1.09091H45.6182L60.6864 23.0455H60.9932V1.09091H68.3398Z" fill="#E2001A"/>
<path d="M16.7273 13.2275C10.7879 12.0391 6.26263 15.7705 4 18.3135C4 23.3994 10.7879 25.0948 16.7273 25.9424C21.4788 26.6206 28.8889 21.139 32 18.3135C28.8889 17.4658 22.6667 14.4158 16.7273 13.2275Z" stroke="black" stroke-width="3"/>
<circle cx="17.5" cy="18.5" r="4.5" fill="black"/>
</svg>
