<svg width="52" height="45" viewBox="0 0 52 45" fill="none" xmlns="http://www.w3.org/2000/svg">
<path d="M23.4091 23.3636C23.4091 25.9015 22.928 28.0606 21.9659 29.8409C21.0114 31.6212 19.7083 32.9811 18.0568 33.9205C16.4129 34.8523 14.5644 35.3182 12.5114 35.3182C10.4432 35.3182 8.58712 34.8485 6.94318 33.9091C5.29924 32.9697 4 31.6098 3.04545 29.8295C2.09091 28.0492 1.61364 25.8939 1.61364 23.3636C1.61364 20.8258 2.09091 18.6667 3.04545 16.8864C4 15.1061 5.29924 13.75 6.94318 12.8182C8.58712 11.8788 10.4432 11.4091 12.5114 11.4091C14.5644 11.4091 16.4129 11.8788 18.0568 12.8182C19.7083 13.75 21.0114 15.1061 21.9659 16.8864C22.928 18.6667 23.4091 20.8258 23.4091 23.3636ZM18.4205 23.3636C18.4205 21.7197 18.1742 20.3333 17.6818 19.2045C17.197 18.0758 16.5114 17.2197 15.625 16.6364C14.7386 16.053 13.7008 15.7614 12.5114 15.7614C11.322 15.7614 10.2841 16.053 9.39773 16.6364C8.51136 17.2197 7.82197 18.0758 7.32955 19.2045C6.8447 20.3333 6.60227 21.7197 6.60227 23.3636C6.60227 25.0076 6.8447 26.3939 7.32955 27.5227C7.82197 28.6515 8.51136 29.5076 9.39773 30.0909C10.2841 30.6742 11.322 30.9659 12.5114 30.9659C13.7008 30.9659 14.7386 30.6742 15.625 30.0909C16.5114 29.5076 17.197 28.6515 17.6818 27.5227C18.1742 26.3939 18.4205 25.0076 18.4205 23.3636ZM45.5599 11.7273V35H41.3099L31.1849 20.3523H31.0144V35H26.094V11.7273H30.4122L40.4576 26.3636H40.6622V11.7273H45.5599Z" fill="#E2001A"/>
<path d="M11.5 20.1342C8 19.4332 5.33333 21.6342 4 23.1342C4 26.1342 8 27.1342 11.5 27.6342C14.3 28.0342 18.6667 24.8008 20.5 23.1342C18.6667 22.6342 15 20.8351 11.5 20.1342Z" stroke="black" stroke-width="2"/>
<circle cx="11.5" cy="23.5" r="2.5" fill="black"/>
<path d="M1.14773 12V0.363636H8.71591V2.13068H3.25568V5.28977H8.32386V7.05682H3.25568V10.233H8.76136V12H1.14773ZM12.054 15.2727C11.7737 15.2727 11.5142 15.25 11.2756 15.2045C11.0407 15.1629 10.8532 15.1136 10.7131 15.0568L11.1903 13.4545C11.4896 13.5417 11.7566 13.5833 11.9915 13.5795C12.2263 13.5758 12.4328 13.5019 12.6108 13.358C12.7926 13.2178 12.946 12.983 13.071 12.6534L13.2472 12.1818L10.0824 3.27273H12.2642L14.2756 9.86364H14.3665L16.3835 3.27273H18.571L15.0767 13.0568C14.9138 13.5189 14.6979 13.9148 14.429 14.2443C14.16 14.5777 13.8305 14.8314 13.4403 15.0057C13.054 15.1837 12.5919 15.2727 12.054 15.2727ZM23.5611 12.1705C22.6861 12.1705 21.9304 11.9886 21.294 11.625C20.6615 11.2576 20.1747 10.7386 19.8338 10.0682C19.4929 9.39394 19.3224 8.60038 19.3224 7.6875C19.3224 6.78977 19.4929 6.00189 19.8338 5.32386C20.1785 4.64205 20.6596 4.11174 21.277 3.73295C21.8944 3.35038 22.6198 3.15909 23.4531 3.15909C23.991 3.15909 24.4986 3.24621 24.9759 3.42045C25.4569 3.59091 25.8812 3.85606 26.2486 4.21591C26.6198 4.57576 26.9115 5.03409 27.1236 5.59091C27.3357 6.14394 27.4418 6.80303 27.4418 7.56818V8.19886H20.2884V6.8125H25.4702C25.4664 6.41856 25.3812 6.06818 25.2145 5.76136C25.0478 5.45076 24.8149 5.20644 24.5156 5.02841C24.2202 4.85038 23.8755 4.76136 23.4815 4.76136C23.0611 4.76136 22.6918 4.86364 22.3736 5.06818C22.0554 5.26894 21.8073 5.53409 21.6293 5.86364C21.455 6.18939 21.366 6.54735 21.3622 6.9375V8.14773C21.3622 8.6553 21.455 9.09091 21.6406 9.45455C21.8262 9.81439 22.0857 10.0909 22.419 10.2841C22.7524 10.4735 23.1425 10.5682 23.5895 10.5682C23.8887 10.5682 24.1596 10.5265 24.402 10.4432C24.6444 10.3561 24.8546 10.2292 25.0327 10.0625C25.2107 9.89583 25.3452 9.68939 25.4361 9.44318L27.3565 9.65909C27.2353 10.1667 27.0043 10.6098 26.6634 10.9886C26.3262 11.3636 25.8944 11.6553 25.3679 11.8636C24.8414 12.0682 24.2391 12.1705 23.5611 12.1705ZM36.0795 5.57955L34.2045 5.78409C34.1515 5.5947 34.0587 5.41667 33.9261 5.25C33.7973 5.08333 33.6231 4.94886 33.4034 4.84659C33.1837 4.74432 32.9148 4.69318 32.5966 4.69318C32.1686 4.69318 31.8087 4.78598 31.517 4.97159C31.2292 5.1572 31.0871 5.39773 31.0909 5.69318C31.0871 5.94697 31.1799 6.15341 31.3693 6.3125C31.5625 6.47159 31.8807 6.60227 32.3239 6.70455L33.8125 7.02273C34.6383 7.20076 35.2519 7.48295 35.6534 7.86932C36.0587 8.25568 36.2633 8.76136 36.267 9.38636C36.2633 9.93561 36.1023 10.4205 35.7841 10.8409C35.4697 11.2576 35.0322 11.5833 34.4716 11.8182C33.911 12.053 33.267 12.1705 32.5398 12.1705C31.4716 12.1705 30.6117 11.947 29.9602 11.5C29.3087 11.0492 28.9205 10.4223 28.7955 9.61932L30.8011 9.42614C30.892 9.82008 31.0852 10.1174 31.3807 10.3182C31.6761 10.5189 32.0606 10.6193 32.5341 10.6193C33.0227 10.6193 33.4148 10.5189 33.7102 10.3182C34.0095 10.1174 34.1591 9.86932 34.1591 9.57386C34.1591 9.32386 34.0625 9.11742 33.8693 8.95455C33.6799 8.79167 33.3845 8.66667 32.983 8.57955L31.4943 8.26705C30.6572 8.0928 30.0379 7.79924 29.6364 7.38636C29.2348 6.9697 29.036 6.44318 29.0398 5.80682C29.036 5.26894 29.1818 4.80303 29.4773 4.40909C29.7765 4.01136 30.1913 3.70455 30.7216 3.48864C31.2557 3.26894 31.8712 3.15909 32.5682 3.15909C33.5909 3.15909 34.3958 3.37689 34.983 3.8125C35.5739 4.24811 35.9394 4.83712 36.0795 5.57955Z" fill="black"/>
<path d="M16.044 44H12.1009V32.3636H16.1236C17.2789 32.3636 18.2713 32.5966 19.1009 33.0625C19.9342 33.5246 20.5743 34.1894 21.0213 35.0568C21.4683 35.9242 21.6918 36.9621 21.6918 38.1705C21.6918 39.3826 21.4664 40.4242 21.0156 41.2955C20.5687 42.1667 19.9228 42.8352 19.0781 43.3011C18.2372 43.767 17.2259 44 16.044 44ZM14.2088 42.1761H15.9418C16.7524 42.1761 17.4285 42.0284 17.9702 41.733C18.5118 41.4337 18.919 40.9886 19.1918 40.3977C19.4645 39.803 19.6009 39.0606 19.6009 38.1705C19.6009 37.2803 19.4645 36.5417 19.1918 35.9545C18.919 35.3636 18.5156 34.9223 17.9815 34.6307C17.4512 34.3352 16.7921 34.1875 16.0043 34.1875H14.2088V42.1761ZM26.1151 44.1761C25.562 44.1761 25.0639 44.0777 24.6207 43.8807C24.1813 43.6799 23.8329 43.3845 23.5753 42.9943C23.3215 42.6042 23.1946 42.1231 23.1946 41.5511C23.1946 41.0587 23.2855 40.6515 23.4673 40.3295C23.6491 40.0076 23.8973 39.75 24.2116 39.5568C24.526 39.3636 24.8802 39.2178 25.2741 39.1193C25.6719 39.017 26.0829 38.9432 26.5071 38.8977C27.0185 38.8447 27.4332 38.7973 27.7514 38.7557C28.0696 38.7102 28.3007 38.642 28.4446 38.5511C28.5923 38.4564 28.6662 38.3106 28.6662 38.1136V38.0795C28.6662 37.6515 28.5393 37.3201 28.2855 37.0852C28.0317 36.8504 27.6662 36.733 27.1889 36.733C26.6851 36.733 26.2855 36.8428 25.9901 37.0625C25.6984 37.2822 25.5014 37.5417 25.3991 37.8409L23.4787 37.5682C23.6302 37.0379 23.8802 36.5947 24.2287 36.2386C24.5772 35.8788 25.0033 35.6098 25.5071 35.4318C26.0109 35.25 26.5677 35.1591 27.1776 35.1591C27.598 35.1591 28.0166 35.2083 28.4332 35.3068C28.8499 35.4053 29.2306 35.5682 29.5753 35.7955C29.92 36.0189 30.1965 36.3239 30.4048 36.7102C30.617 37.0966 30.723 37.5795 30.723 38.1591V44H28.7457V42.8011H28.6776C28.5526 43.0436 28.3764 43.2708 28.1491 43.483C27.9257 43.6913 27.6435 43.8598 27.3026 43.9886C26.9654 44.1136 26.5696 44.1761 26.1151 44.1761ZM26.6491 42.6648C27.062 42.6648 27.42 42.5833 27.723 42.4205C28.026 42.2538 28.259 42.0341 28.4219 41.7614C28.5885 41.4886 28.6719 41.1913 28.6719 40.8693V39.8409C28.6075 39.8939 28.4976 39.9432 28.3423 39.9886C28.1908 40.0341 28.0204 40.0739 27.831 40.108C27.6416 40.142 27.4541 40.1723 27.2685 40.1989C27.0829 40.2254 26.9219 40.2481 26.7855 40.267C26.4787 40.3087 26.2041 40.3769 25.9616 40.4716C25.7192 40.5663 25.5279 40.6989 25.3878 40.8693C25.2476 41.036 25.1776 41.2519 25.1776 41.517C25.1776 41.8958 25.3158 42.1818 25.5923 42.375C25.8688 42.5682 26.2211 42.6648 26.6491 42.6648ZM37.1491 35.2727V36.8636H32.1321V35.2727H37.1491ZM33.3707 33.1818H35.4276V41.375C35.4276 41.6515 35.4692 41.8636 35.5526 42.0114C35.6397 42.1553 35.7533 42.2538 35.8935 42.3068C36.0336 42.3598 36.1889 42.3864 36.3594 42.3864C36.4882 42.3864 36.6056 42.3769 36.7116 42.358C36.8215 42.339 36.9048 42.322 36.9616 42.3068L37.3082 43.9148C37.1984 43.9527 37.0412 43.9943 36.8366 44.0398C36.6359 44.0852 36.3897 44.1117 36.098 44.1193C35.5829 44.1345 35.1188 44.0568 34.706 43.8864C34.2931 43.7121 33.9654 43.4432 33.723 43.0795C33.4844 42.7159 33.367 42.2614 33.3707 41.7159V33.1818ZM41.3807 44.1761C40.8277 44.1761 40.3295 44.0777 39.8864 43.8807C39.447 43.6799 39.0985 43.3845 38.8409 42.9943C38.5871 42.6042 38.4602 42.1231 38.4602 41.5511C38.4602 41.0587 38.5511 40.6515 38.733 40.3295C38.9148 40.0076 39.1629 39.75 39.4773 39.5568C39.7917 39.3636 40.1458 39.2178 40.5398 39.1193C40.9375 39.017 41.3485 38.9432 41.7727 38.8977C42.2841 38.8447 42.6989 38.7973 43.017 38.7557C43.3352 38.7102 43.5663 38.642 43.7102 38.5511C43.858 38.4564 43.9318 38.3106 43.9318 38.1136V38.0795C43.9318 37.6515 43.8049 37.3201 43.5511 37.0852C43.2973 36.8504 42.9318 36.733 42.4545 36.733C41.9508 36.733 41.5511 36.8428 41.2557 37.0625C40.964 37.2822 40.767 37.5417 40.6648 37.8409L38.7443 37.5682C38.8958 37.0379 39.1458 36.5947 39.4943 36.2386C39.8428 35.8788 40.2689 35.6098 40.7727 35.4318C41.2765 35.25 41.8333 35.1591 42.4432 35.1591C42.8636 35.1591 43.2822 35.2083 43.6989 35.3068C44.1155 35.4053 44.4962 35.5682 44.8409 35.7955C45.1856 36.0189 45.4621 36.3239 45.6705 36.7102C45.8826 37.0966 45.9886 37.5795 45.9886 38.1591V44H44.0114V42.8011H43.9432C43.8182 43.0436 43.642 43.2708 43.4148 43.483C43.1913 43.6913 42.9091 43.8598 42.5682 43.9886C42.2311 44.1136 41.8352 44.1761 41.3807 44.1761ZM41.9148 42.6648C42.3277 42.6648 42.6856 42.5833 42.9886 42.4205C43.2917 42.2538 43.5246 42.0341 43.6875 41.7614C43.8542 41.4886 43.9375 41.1913 43.9375 40.8693V39.8409C43.8731 39.8939 43.7633 39.9432 43.608 39.9886C43.4564 40.0341 43.286 40.0739 43.0966 40.108C42.9072 40.142 42.7197 40.1723 42.5341 40.1989C42.3485 40.2254 42.1875 40.2481 42.0511 40.267C41.7443 40.3087 41.4697 40.3769 41.2273 40.4716C40.9848 40.5663 40.7936 40.6989 40.6534 40.8693C40.5133 41.036 40.4432 41.2519 40.4432 41.517C40.4432 41.8958 40.5814 42.1818 40.858 42.375C41.1345 42.5682 41.4867 42.6648 41.9148 42.6648Z" fill="black"/>
</svg>
